<?xml version="1.0" encoding="utf-8"?>
<!-- Generator: Adobe Illustrator 16.0.3, SVG Export Plug-In . SVG Version: 6.00 Build 0)  -->
<!DOCTYPE svg PUBLIC "-//W3C//DTD SVG 1.1//EN" "http://www.w3.org/Graphics/SVG/1.1/DTD/svg11.dtd">
<svg version="1.1" id="Warstwa_1" xmlns="http://www.w3.org/2000/svg" xmlns:xlink="http://www.w3.org/1999/xlink" x="0px" y="0px"
	 width="283.465px" height="59.52px" viewBox="0 0 283.465 59.52" enable-background="new 0 0 283.465 59.52" xml:space="preserve">
<g>
	<g>
		<path fill-rule="evenodd" clip-rule="evenodd" fill="#0059A3" d="M245.106,18.143h2.738c1.762,0,3.424,1.321,3.424,3.081
			c0,1.593-1.36,3.081-3.081,3.081h-3.081V18.143L245.106,18.143z M263.686,22.263C263.267,5.397,244.286,8.832,232.782,8.9v21.567
			c4.796,0.399,8.558,3.693,8.558,8.9c0,2.939-1.062,3.946-2.054,5.82h5.82V33.891l5.142-0.24
			C259.132,32.829,262.791,30.87,263.686,22.263z"/>
		<path fill-rule="evenodd" clip-rule="evenodd" fill="#0059A3" d="M117.076,11.639h4.45c1.721,0,3.424,1.702,3.424,3.423
			c0,2.161-2.006,4.108-4.108,4.108h-3.766V11.639L117.076,11.639z M102.356,41.079c0.502,1.306,1.515,3.431,1.464,3.423h13.598
			l0.005-13.598l6.157-0.437c4.577-0.261,8.45-0.935,11.437-2.941c9.896-6.646,4.623-25.893-7.324-27.233L123.922,0h-21.566V41.079z
			"/>
		<path fill-rule="evenodd" clip-rule="evenodd" fill="#0059A3" d="M75.083,18.74l2.788,7.217l-5.583,0.082L75.083,18.74
			L75.083,18.74z M49.98,42.791v1.711l14.879-0.079l3.264-7.451h0.685l13.233,0.049l3.199,7.481h0.685h15.405
			C86.027,9.999,90.448,20.243,82.159,0H67.563c-0.525,1.724-7.623,18.331-8.912,21.337C51.021,41.302,49.98,40.74,49.98,42.791z"/>
		<path fill-rule="evenodd" clip-rule="evenodd" fill="#0059A3" d="M194.784,11.981c7.136,0,12.324,2.738,12.324,9.927v1.37
			c0,5.656-3.32,8.359-8.559,8.9l-3.766,0.343V11.981L194.784,11.981z M179.782,39.607c0.364,1.567,1.356,3.251,2.294,4.895h17.5
			C230.867,44.502,227.795,0,200.261,0h-20.539L179.782,39.607z"/>
		<path fill-rule="evenodd" clip-rule="evenodd" fill="#0059A3" d="M15.063,44.502V21.909c3.66,4.424,14.78,17.174,18.593,21.417
			c0.429,0.478,0.669,0.723,1.112,1.176h13.5V0H33.89l-0.155,22.726L14.72,0H0v37.042v0.271v7.188h9.551H15.063z"/>
		<path fill-rule="evenodd" clip-rule="evenodd" fill="#0059A3" d="M153.476,18.74l2.788,7.217l-5.584,0.082L153.476,18.74
			L153.476,18.74z M133.566,30.452c-0.612,0.257-1.624,0.415-1.73,0.71c-1.548,4.301-3.237,8.955-4.49,13.34h16.09l3.058-7.541
			l0.707,0.011h13.352l3.018,7.557l0.747-0.026h15.405C172.634,28.821,166.37,15.021,160.552,0h-14.16
			c-1.69,3.612-4.665,9.52-4.619,11.292C142.235,18.776,141.235,27.001,133.566,30.452z"/>
		<path fill-rule="evenodd" clip-rule="evenodd" fill="#0059A3" d="M283.446,45.188v-9.586h-10.27V8.9h-11.639v1.711
			c2.927,5.01,4.224,7.412,4.104,10.787c-0.101,2.811-0.596,6.378-4.104,11.123v12.666H283.446z"/>
		<circle fill-rule="evenodd" clip-rule="evenodd" fill="#0059A3" cx="232.184" cy="38.908" r="7.293"/>
	</g>
	<path fill-rule="evenodd" clip-rule="evenodd" fill="#0059A3" d="M5.066,58.229H2.581l-0.342,1.165H0.01l2.653-7.06h2.378
		l2.655,7.06H5.413L5.066,58.229L5.066,58.229z M4.609,56.701l-0.781-2.538l-0.776,2.538H4.609L4.609,56.701z M10.742,52.334h2.183
		v5.321h3.405v1.738h-5.588V52.334L10.742,52.334z M24.014,58.229h-2.485l-0.342,1.165h-2.229l2.653-7.06h2.378l2.655,7.06h-2.284
		L24.014,58.229L24.014,58.229z M23.557,56.701l-0.781-2.538L22,56.701H23.557L23.557,56.701z M29.719,59.394v-7.06h3.636
		c0.674,0,1.19,0.058,1.545,0.174c0.356,0.115,0.644,0.329,0.863,0.643c0.219,0.313,0.327,0.694,0.327,1.143
		c0,0.393-0.083,0.73-0.25,1.015c-0.167,0.284-0.398,0.515-0.688,0.692c-0.188,0.111-0.442,0.205-0.766,0.277
		c0.26,0.087,0.449,0.175,0.569,0.262c0.079,0.058,0.195,0.181,0.349,0.369c0.152,0.19,0.255,0.336,0.305,0.439l1.056,2.046h-2.466
		l-1.166-2.158c-0.148-0.277-0.279-0.46-0.396-0.544c-0.156-0.108-0.335-0.163-0.534-0.163h-0.192v2.865H29.719L29.719,59.394z
		 M31.911,55.194h0.92c0.099,0,0.291-0.031,0.577-0.096c0.145-0.029,0.263-0.104,0.355-0.222c0.09-0.118,0.136-0.255,0.136-0.409
		c0-0.229-0.072-0.403-0.217-0.524c-0.145-0.124-0.416-0.185-0.813-0.185h-0.958V55.194L31.911,55.194z M39.687,52.334h2.87
		l1.108,4.295l1.103-4.295h2.86v7.06h-1.782v-5.383l-1.382,5.383h-1.613l-1.377-5.383v5.383h-1.787V52.334L39.687,52.334z
		 M50.863,56.062h2.851v1.516h-2.851V56.062L50.863,56.062z M56.506,52.334h6.631v1.744h-2.226v5.315H58.73v-5.315h-2.224V52.334
		L56.506,52.334z M66.469,52.334h5.846v1.507h-3.659v1.123h3.395v1.44h-3.395v1.391h3.766v1.599h-5.953V52.334L66.469,52.334z
		 M80.645,56.509l1.912,0.579c-0.128,0.536-0.331,0.982-0.606,1.343s-0.62,0.632-1.029,0.814c-0.41,0.184-0.931,0.274-1.562,0.274
		c-0.768,0-1.396-0.112-1.88-0.334c-0.487-0.224-0.907-0.616-1.261-1.179c-0.352-0.563-0.53-1.28-0.53-2.157
		c0-1.168,0.311-2.067,0.932-2.693c0.622-0.629,1.501-0.942,2.637-0.942c0.89,0,1.588,0.179,2.098,0.539
		c0.51,0.36,0.888,0.912,1.134,1.657l-1.927,0.429c-0.067-0.215-0.138-0.373-0.212-0.474c-0.122-0.166-0.271-0.294-0.447-0.384
		c-0.178-0.091-0.375-0.136-0.594-0.136c-0.493,0-0.873,0.199-1.136,0.597c-0.199,0.296-0.299,0.76-0.299,1.393
		c0,0.784,0.12,1.32,0.357,1.611c0.238,0.291,0.572,0.436,1.001,0.436c0.417,0,0.733-0.117,0.947-0.352
		C80.394,57.297,80.548,56.956,80.645,56.509L80.645,56.509z M85.974,52.334h2.181v2.471h2.385v-2.471h2.191v7.06h-2.191v-2.854
		h-2.385v2.854h-2.181V52.334L85.974,52.334z M100.379,57.059l2.076-0.13c0.044,0.337,0.136,0.593,0.274,0.771
		c0.224,0.286,0.546,0.428,0.963,0.428c0.311,0,0.55-0.072,0.72-0.219c0.167-0.146,0.251-0.315,0.251-0.508
		c0-0.183-0.079-0.348-0.24-0.492s-0.533-0.281-1.118-0.409c-0.957-0.215-1.639-0.499-2.047-0.856
		c-0.411-0.356-0.616-0.811-0.616-1.362c0-0.363,0.105-0.707,0.315-1.029s0.526-0.575,0.949-0.761
		c0.422-0.185,1.001-0.276,1.736-0.276c0.902,0,1.591,0.168,2.064,0.503s0.755,0.869,0.845,1.602l-2.057,0.12
		c-0.054-0.318-0.169-0.55-0.345-0.694c-0.174-0.143-0.416-0.215-0.723-0.215c-0.255,0-0.445,0.052-0.574,0.16
		c-0.128,0.107-0.192,0.239-0.192,0.394c0,0.111,0.053,0.212,0.158,0.302c0.104,0.095,0.347,0.18,0.733,0.261
		c0.953,0.205,1.635,0.414,2.048,0.624c0.413,0.211,0.714,0.471,0.901,0.783c0.188,0.311,0.283,0.658,0.283,1.045
		c0,0.452-0.126,0.87-0.376,1.251c-0.25,0.383-0.6,0.673-1.05,0.87c-0.449,0.197-1.016,0.296-1.7,0.296
		c-1.2,0-2.032-0.23-2.494-0.694C100.701,58.358,100.439,57.771,100.379,57.059L100.379,57.059z M109.518,52.334h2.423l1.425,2.383
		l1.425-2.383h2.408l-2.745,4.103v2.957h-2.186v-2.957L109.518,52.334L109.518,52.334z M119.447,57.059l2.076-0.13
		c0.044,0.337,0.137,0.593,0.274,0.771c0.224,0.286,0.546,0.428,0.964,0.428c0.311,0,0.55-0.072,0.72-0.219
		c0.167-0.146,0.251-0.315,0.251-0.508c0-0.183-0.079-0.348-0.24-0.492c-0.161-0.145-0.532-0.281-1.118-0.409
		c-0.957-0.215-1.639-0.499-2.046-0.856c-0.411-0.356-0.617-0.811-0.617-1.362c0-0.363,0.105-0.707,0.316-1.029
		s0.526-0.575,0.948-0.761c0.422-0.185,1.001-0.276,1.736-0.276c0.902,0,1.591,0.168,2.064,0.503s0.754,0.869,0.845,1.602
		l-2.056,0.12c-0.055-0.318-0.169-0.55-0.346-0.694c-0.174-0.143-0.416-0.215-0.723-0.215c-0.254,0-0.445,0.052-0.574,0.16
		c-0.128,0.107-0.192,0.239-0.192,0.394c0,0.111,0.053,0.212,0.158,0.302c0.104,0.095,0.347,0.18,0.733,0.261
		c0.954,0.205,1.636,0.414,2.048,0.624c0.413,0.211,0.713,0.471,0.901,0.783c0.188,0.311,0.283,0.658,0.283,1.045
		c0,0.452-0.126,0.87-0.376,1.251c-0.25,0.383-0.6,0.673-1.05,0.87c-0.449,0.197-1.016,0.296-1.7,0.296
		c-1.2,0-2.032-0.23-2.494-0.694C119.769,58.358,119.507,57.771,119.447,57.059L119.447,57.059z M128.803,52.334h6.631v1.744h-2.226
		v5.315h-2.182v-5.315h-2.224V52.334L128.803,52.334z M138.766,52.334h5.846v1.507h-3.659v1.123h3.395v1.44h-3.395v1.391h3.767
		v1.599h-5.953V52.334L138.766,52.334z M148.218,52.334h2.87l1.107,4.295l1.104-4.295h2.86v7.06h-1.782v-5.383l-1.383,5.383h-1.612
		l-1.378-5.383v5.383h-1.786V52.334L148.218,52.334z M159.187,52.334h2.423l1.425,2.383l1.426-2.383h2.408l-2.745,4.103v2.957
		h-2.187v-2.957L159.187,52.334L159.187,52.334z M173.971,52.334h6.175v1.41l-3.959,4.133h4.104v1.517h-6.698V57.93l3.913-4.089
		h-3.534V52.334L173.971,52.334z M187.965,58.229h-2.485l-0.343,1.165h-2.229l2.653-7.06h2.379l2.654,7.06h-2.283L187.965,58.229
		L187.965,58.229z M187.508,56.701l-0.781-2.538l-0.775,2.538H187.508L187.508,56.701z M193.646,52.334h4.085
		c0.681,0,1.203,0.169,1.566,0.506c0.365,0.337,0.547,0.755,0.547,1.251c0,0.418-0.129,0.776-0.389,1.075
		c-0.175,0.199-0.428,0.356-0.762,0.472c0.507,0.122,0.88,0.332,1.119,0.628c0.239,0.298,0.358,0.671,0.358,1.12
		c0,0.366-0.085,0.695-0.255,0.987c-0.171,0.293-0.402,0.523-0.698,0.694c-0.183,0.104-0.458,0.182-0.828,0.229
		c-0.491,0.064-0.817,0.097-0.979,0.097h-3.766V52.334L193.646,52.334z M195.847,55.104h0.948c0.34,0,0.577-0.059,0.712-0.176
		c0.133-0.118,0.199-0.288,0.199-0.508c0-0.206-0.066-0.366-0.199-0.481c-0.135-0.117-0.366-0.175-0.697-0.175h-0.963V55.104
		L195.847,55.104z M195.847,57.877h1.112c0.377,0,0.642-0.065,0.794-0.199c0.155-0.133,0.232-0.313,0.232-0.537
		c0-0.209-0.076-0.377-0.229-0.503c-0.153-0.127-0.42-0.191-0.803-0.191h-1.107V57.877L195.847,57.877z M203.657,52.334h5.846v1.507
		h-3.659v1.123h3.395v1.44h-3.395v1.391h3.767v1.599h-5.953V52.334L203.657,52.334z M212.955,52.334h6.174v1.41l-3.958,4.133h4.103
		v1.517h-6.698V57.93l3.914-4.089h-3.534V52.334L212.955,52.334z M222.596,52.334h3.626c0.789,0,1.381,0.188,1.773,0.563
		c0.394,0.375,0.591,0.911,0.591,1.603c0,0.714-0.214,1.271-0.643,1.672c-0.43,0.401-1.084,0.603-1.964,0.603h-1.193v2.619h-2.19
		V52.334L222.596,52.334z M224.786,55.344h0.535c0.421,0,0.715-0.072,0.886-0.219c0.169-0.146,0.255-0.334,0.255-0.561
		c0-0.222-0.074-0.411-0.222-0.563c-0.146-0.155-0.425-0.232-0.832-0.232h-0.622V55.344L224.786,55.344z M232.162,52.334h2.187v7.06
		h-2.187V52.334L232.162,52.334z M238.259,52.334h5.846v1.507h-3.659v1.123h3.395v1.44h-3.395v1.391h3.766v1.599h-5.952V52.334
		L238.259,52.334z M252.435,56.509l1.912,0.579c-0.128,0.536-0.33,0.982-0.606,1.343s-0.62,0.632-1.029,0.814
		c-0.409,0.184-0.931,0.274-1.562,0.274c-0.768,0-1.396-0.112-1.881-0.334c-0.486-0.224-0.907-0.616-1.261-1.179
		c-0.352-0.563-0.529-1.28-0.529-2.157c0-1.168,0.311-2.067,0.933-2.693c0.621-0.629,1.5-0.942,2.637-0.942
		c0.889,0,1.588,0.179,2.097,0.539c0.51,0.36,0.888,0.912,1.135,1.657l-1.927,0.429c-0.067-0.215-0.138-0.373-0.212-0.474
		c-0.122-0.166-0.271-0.294-0.447-0.384c-0.178-0.091-0.375-0.136-0.594-0.136c-0.492,0-0.872,0.199-1.136,0.597
		c-0.198,0.296-0.299,0.76-0.299,1.393c0,0.784,0.12,1.32,0.356,1.611c0.238,0.291,0.572,0.436,1.001,0.436
		c0.418,0,0.733-0.117,0.947-0.352C252.184,57.297,252.338,56.956,252.435,56.509L252.435,56.509z M257.576,52.334h6.175v1.41
		l-3.959,4.133h4.104v1.517h-6.698V57.93l3.913-4.089h-3.534V52.334L257.576,52.334z M267.222,52.334h5.846v1.507h-3.659v1.123
		h3.395v1.44h-3.395v1.391h3.767v1.599h-5.953V52.334L267.222,52.334z M276.712,52.334h2.038l2.658,3.905v-3.905h2.057v7.06h-2.057
		l-2.646-3.876v3.876h-2.051V52.334L276.712,52.334z M280.03,50.427h1.685l-1.555,1.44h-0.938L280.03,50.427z"/>
	<path fill-rule="evenodd" clip-rule="evenodd" fill="#0059A3" d="M279.746,0c0.621,0,1.228,0.159,1.821,0.478
		c0.591,0.32,1.054,0.776,1.384,1.37c0.33,0.594,0.495,1.213,0.495,1.858c0,0.638-0.162,1.251-0.489,1.84
		c-0.325,0.589-0.782,1.047-1.368,1.372c-0.588,0.327-1.201,0.489-1.843,0.489c-0.643,0-1.257-0.162-1.843-0.489
		c-0.589-0.325-1.046-0.782-1.373-1.372c-0.328-0.588-0.49-1.202-0.49-1.84c0-0.645,0.166-1.265,0.497-1.858
		c0.332-0.594,0.794-1.05,1.388-1.37C278.516,0.159,279.124,0,279.746,0L279.746,0z M279.746,0.613c-0.521,0-1.027,0.134-1.52,0.4
		c-0.493,0.267-0.878,0.648-1.156,1.143c-0.278,0.496-0.417,1.012-0.417,1.55c0,0.533,0.137,1.043,0.41,1.533
		c0.273,0.49,0.655,0.872,1.146,1.145c0.491,0.273,1.002,0.411,1.537,0.411c0.532,0,1.045-0.138,1.536-0.411
		c0.49-0.273,0.871-0.655,1.143-1.145c0.271-0.489,0.407-1,0.407-1.533c0-0.538-0.138-1.054-0.414-1.55
		c-0.276-0.494-0.662-0.876-1.156-1.143S280.262,0.613,279.746,0.613L279.746,0.613z M278.121,5.752h0.644V4.06h0.376
		c0.227,0,0.399,0.045,0.517,0.137c0.171,0.124,0.394,0.434,0.672,0.927l0.354,0.628h0.785l-0.485-0.779
		c-0.233-0.37-0.429-0.633-0.59-0.791c-0.084-0.083-0.198-0.153-0.339-0.211c0.344-0.027,0.62-0.147,0.828-0.364
		c0.208-0.216,0.312-0.469,0.312-0.76c0-0.206-0.062-0.4-0.186-0.585c-0.126-0.183-0.292-0.312-0.502-0.385
		c-0.209-0.074-0.547-0.109-1.017-0.109h-1.368V5.752L278.121,5.752z M278.765,3.51h0.78c0.372,0,0.626-0.057,0.762-0.167
		c0.136-0.11,0.205-0.258,0.205-0.442c0-0.117-0.034-0.223-0.1-0.316c-0.064-0.092-0.155-0.163-0.271-0.208
		c-0.118-0.046-0.332-0.068-0.647-0.068h-0.729V3.51z"/>
</g>
</svg>
